<!DOCTYPE svg PUBLIC "-//W3C//DTD SVG 1.1//EN" "http://www.w3.org/Graphics/SVG/1.1/DTD/svg11.dtd">

<!-- Uploaded to: SVG Repo, www.svgrepo.com, Transformed by: SVG Repo Mixer Tools -->
<svg fill="white" height="800px" width="800px" version="1.1" id="Layer_1" xmlns="http://www.w3.org/2000/svg" xmlns:xlink="http://www.w3.org/1999/xlink" viewBox="0 0 512.001 512.001" xml:space="preserve" stroke="#9e2967">

<g id="SVGRepo_bgCarrier" stroke-width="0"/>

<g id="SVGRepo_tracerCarrier" stroke-linecap="round" stroke-linejoin="round"/>

<g id="SVGRepo_iconCarrier"> <g transform="translate(0 -1)"> <g> <g> <path d="M238.934,286.83c19.541,0,34.133-9.011,34.133-17.067s-14.592-17.067-34.133-17.067s-34.133,9.011-34.133,17.067 S219.393,286.83,238.934,286.83z"/> <path d="M455.997,261.503l-17.86,59.46h-17.818l19.055-63.428c-6.784-1.331-13.414-2.389-19.499-3.337 c-6.758-1.05-13.141-2.039-18.807-3.26c-3.806-0.828-10.837-3.541-23.62-10.718l-24.593,80.742h-17.843l27.332-89.711 c-1.929-1.186-3.925-2.441-6.007-3.755c3.934-9.318,2.15-20.497-5.436-28.075c-9.984-9.984-26.214-9.984-36.198,0l-0.034,0.034 c-4.13-2.901-8.209-5.803-12.288-8.713c3.089-4.318,4.821-9.438,4.821-14.848c0-6.844-2.671-13.278-7.492-18.099 c-9.677-9.668-26.539-9.668-36.207,0l-2.637,2.637c-12.595-9.421-23.262-17.544-30.114-22.81 c-8.329-6.383-20.19-5.623-27.605,1.809l-17.527,17.519c-8.038,8.038-8.414,20.779-1.314,29.372c0.922,0.7,1.681,1.57,2.253,2.56 l3.831,3.831c1.195,1.186,1.075,2.62,0.964,3.183c-0.145,0.742-0.572,1.741-1.758,2.253c-1.075,0.461-2.108,0.836-3.157,1.263 l-30.438,121.549h-17.596l28.928-115.541c-25.779,5.743-45.764,0.324-60.331-8.021L71.1,320.964H53.326l38.989-134.212 c-9.933-8.951-15.036-17.562-15.573-18.5c-1.246-2.202-3.422-3.746-5.922-4.198c-3.149-0.572-7.97-0.435-13.201,3.328 C31.113,186.436,12.613,302.369,8.892,327.475l-8.431,24.559c-0.64,1.86-0.614,3.908,0.077,5.76 c2.022,5.367,13.559,22.904,77.457,22.904l374.801-0.017c20.523-1.28,59.298-13.628,59.204-51.174v-0.009v-0.017v-0.009 C511.984,286.839,484.856,269.84,455.997,261.503z M308.66,229.597l18.108-18.108c3.328-3.319,8.738-3.319,12.066,0 c3.328,3.337,3.328,8.738,0,12.075l-0.41,0.41h-0.008l-17.681,17.69c-3.226,3.217-8.849,3.217-12.066,0 c-1.613-1.604-2.5-3.755-2.5-6.033C306.168,233.343,307.047,231.202,308.66,229.597z M257.46,187.963l18.108-18.099 c3.217-3.234,8.841-3.243,12.075,0.009c1.604,1.604,2.492,3.738,2.492,6.025c0,2.278-0.887,4.42-2.5,6.033l-4.13,4.13 l-13.969,13.969c-0.836,0.836-1.792,1.459-2.825,1.877c-0.205,0.077-0.435,0.06-0.649,0.128 c-2.321,0.725-4.804,0.393-6.929-0.896c-0.572-0.35-1.178-0.614-1.664-1.109C254.141,196.701,254.141,191.291,257.46,187.963z M238.934,235.63c28.706,0,51.2,14.993,51.2,34.133s-22.494,34.133-51.2,34.133s-51.2-14.993-51.2-34.133 S210.228,235.63,238.934,235.63z M452.267,363.63H77.995c-40.201,0-54.963-7.228-59.776-10.76l5.086-14.839h36.429h85.342 h196.258h85.333h67.115C487.083,361.002,453.36,363.536,452.267,363.63z"/> </g> </g> </g> </g>

</svg>